<?xml version="1.0" encoding="UTF-8"?>
<svg version="1.1" xmlns="http://www.w3.org/2000/svg" width="512" height="512">
<path d="M0 0 C1.94298364 -0.00299726 3.88596669 -0.00640108 5.82894897 -0.01017761 C11.07721668 -0.01896496 16.32546804 -0.02135352 21.57374239 -0.0219934 C24.86182987 -0.02270699 28.14991327 -0.02484715 31.43799973 -0.02749062 C42.93523164 -0.0367272 54.432452 -0.04082769 65.9296875 -0.04003906 C76.60415655 -0.03943899 87.27857494 -0.04998131 97.95303118 -0.06578273 C107.15263149 -0.07890992 116.35221534 -0.08422078 125.55182493 -0.08358365 C131.03070891 -0.08333015 136.50954784 -0.08609892 141.98842239 -0.0967617 C147.14806242 -0.10653011 152.30761513 -0.10646274 157.46725845 -0.09924507 C159.34640126 -0.09820994 161.22554976 -0.10049723 163.10468292 -0.10660553 C178.61933458 -0.15371655 194.06015801 0.59347563 209.18896484 4.33276367 C210.49788696 4.65204834 210.49788696 4.65204834 211.83325195 4.9777832 C237.27212317 11.51821113 261.87882766 27.38761366 275.56396484 50.14526367 C290.98872385 76.45196822 294.718537 103.51050586 294.70922852 133.58129883 C294.71222577 135.52428247 294.7156296 137.46726552 294.71940613 139.4102478 C294.72819348 144.6585155 294.73058204 149.90676687 294.73122191 155.15504122 C294.7319355 158.4431287 294.73407567 161.73121209 294.73671913 165.01929855 C294.74595572 176.51653047 294.75005621 188.01375083 294.74926758 199.51098633 C294.74866751 210.18545537 294.75920982 220.85987377 294.77501124 231.53433001 C294.78813843 240.73393031 294.7934493 249.93351417 294.79281217 259.13312376 C294.79255867 264.61200774 294.79532744 270.09084667 294.80599022 275.56972122 C294.81575862 280.72936125 294.81569125 285.88891396 294.80847359 291.04855728 C294.80743846 292.92770009 294.80972574 294.80684859 294.81583405 296.68598175 C294.86294507 312.20063341 294.11575289 327.64145684 290.37646484 342.77026367 C290.1636084 343.64287842 289.95075195 344.51549316 289.73144531 345.41455078 C283.19101739 370.853422 267.32161485 395.46012648 244.56396484 409.14526367 C218.30280593 424.5433173 190.54465439 428.46537982 160.54199219 428.41992188 C158.60785732 428.42428253 156.67372417 428.42947012 154.73959351 428.43540955 C149.54084679 428.44866776 144.34217336 428.4493929 139.14341307 428.44684625 C134.77555924 428.44576715 130.40771968 428.45068384 126.03986895 428.45545167 C115.71829995 428.46650211 105.39676735 428.46701003 95.07519531 428.4609375 C84.49271165 428.4549063 73.91036124 428.4671974 63.32790029 428.48850757 C54.1841296 428.506231 45.04040091 428.51210799 35.89661372 428.50886983 C30.46120422 428.50707327 25.02588971 428.50952739 19.59049606 428.52358437 C-25.49879431 428.63010744 -67.77915467 426.94805514 -102.12353516 393.77026367 C-128.27171206 366.92529103 -133.5924095 330.60194636 -133.58129883 294.70922852 C-133.58429608 292.76624487 -133.58769991 290.82326182 -133.59147644 288.88027954 C-133.60026379 283.63201184 -133.60265235 278.38376047 -133.60329223 273.13548613 C-133.60400582 269.84739865 -133.60614598 266.55931525 -133.60878944 263.27122879 C-133.61802603 251.77399688 -133.62212652 240.27677652 -133.62133789 228.77954102 C-133.62073782 218.10507197 -133.63128014 207.43065357 -133.64708155 196.75619733 C-133.66020875 187.55659703 -133.66551961 178.35701317 -133.66488248 169.15740359 C-133.66462898 163.67851961 -133.66739775 158.19968068 -133.67806053 152.72080612 C-133.68782894 147.5611661 -133.68776157 142.40161339 -133.6805439 137.24197006 C-133.67950877 135.36282726 -133.68179606 133.48367876 -133.68790436 131.60454559 C-133.73501538 116.08989394 -132.9878232 100.6490705 -129.24853516 85.52026367 C-129.03567871 84.64764893 -128.82282227 83.77503418 -128.60351562 82.87597656 C-122.07896752 57.49886959 -106.23895935 32.74646438 -83.43603516 19.14526367 C-57.11151198 3.73595637 -30.08412963 -0.00931261 0 0 Z M6.00537109 112.41088867 C5.21621811 113.2042865 4.42706512 113.99768433 3.61399841 114.81512451 C1.11098401 117.33484543 -1.38135865 119.86482743 -3.87353516 122.39526367 C-5.57531358 124.11209922 -7.27778043 125.82825267 -8.98095703 127.54370117 C-13.14065172 131.73635863 -17.2916491 135.93747614 -21.43603516 140.14526367 C-24.24290287 138.84185858 -26.06415026 137.61969797 -28.49853516 135.58276367 C-32.38656759 132.35652399 -35.28301367 131.77939931 -40.31103516 131.87182617 C-44.66597924 132.43220501 -47.87947074 134.37289239 -50.76025391 137.65307617 C-53.36120527 141.57731859 -53.89908417 145.19047785 -53.96728516 149.83666992 C-52.31442092 157.0193373 -45.61982226 162.32835913 -40.62353516 167.33276367 C-39.45081055 168.54222656 -39.45081055 168.54222656 -38.25439453 169.77612305 C-33.43116905 174.6235251 -29.30039007 178.67507119 -22.21337891 179.36010742 C-21.60623047 179.26858398 -20.99908203 179.17706055 -20.37353516 179.08276367 C-19.76380859 179.00928711 -19.15408203 178.93581055 -18.52587891 178.86010742 C-13.24772476 177.05468273 -9.19689619 173.16166298 -5.30444336 169.30419922 C-4.83046112 168.8369342 -4.35647888 168.36966919 -3.86813354 167.88824463 C-2.31909091 166.35803896 -0.77754679 164.8205542 0.76318359 163.28198242 C1.84586967 162.20573207 2.92870192 161.12962875 4.01167297 160.05366516 C6.27363242 157.80364115 8.53146048 155.54956212 10.78686523 153.29296875 C13.66832695 150.41130357 16.5633185 147.54365978 19.46202374 144.67935467 C21.70031954 142.46335843 23.92940291 140.23826774 26.15604591 138.01056862 C27.21929193 136.94967218 28.28575846 135.89199267 29.35556602 134.83771324 C30.85363621 133.35937358 32.33834508 131.86872925 33.82055664 130.37451172 C34.66627731 129.53164108 35.51199799 128.68877045 36.38334656 127.82035828 C39.33781854 124.19593116 41.28974406 120.45923627 41.84912109 115.73901367 C41.20939628 109.72335582 39.16452246 106.0950107 34.56396484 102.14526367 C22.97604621 95.13152345 13.71343571 104.54397105 6.00537109 112.41088867 Z M74.25146484 138.33276367 C71.90744123 142.23946969 71.25369435 145.60471979 71.56396484 150.14526367 C72.89004169 154.8235969 74.8229703 157.5554925 78.62646484 160.58276367 C82.3963999 162.58804827 85.10592691 163.27127587 89.31266785 163.29243469 C90.77819595 163.30316765 90.77819595 163.30316765 92.27333069 163.31411743 C93.87935402 163.31815079 93.87935402 163.31815079 95.51782227 163.32226562 C96.64657776 163.32883682 97.77533325 163.33540802 98.93829346 163.34217834 C102.68200748 163.36192429 106.42568136 163.37357727 110.16943359 163.38354492 C111.44750696 163.38762045 112.72558033 163.39169598 114.04238319 163.395895 C120.11003892 163.41460975 126.17767031 163.42917361 132.2453472 163.43750697 C139.23757284 163.44726979 146.22948111 163.4735653 153.22159499 163.51400787 C159.28656704 163.54787737 165.35140631 163.55965786 171.41646767 163.56371117 C173.99163273 163.56858115 176.5667943 163.58020675 179.1418972 163.59874916 C182.74923276 163.62310838 186.35574205 163.62218076 189.96313477 163.61523438 C191.02369583 163.62804443 192.0842569 163.64085449 193.17695618 163.65405273 C199.47788831 163.60990812 204.32885001 162.81840783 209.56396484 159.14526367 C213.68573908 154.81211639 214.94808583 151.29144537 214.83740234 145.27026367 C214.37378888 141.66732477 213.06516723 138.77810829 210.56396484 136.14526367 C204.38497498 131.67183578 199.24475446 131.5724115 191.75708008 131.62768555 C190.58551361 131.62067627 189.41394714 131.61366699 188.20687866 131.60644531 C184.34519555 131.58888065 180.48424879 131.60048286 176.62255859 131.61401367 C173.93408111 131.61312228 171.24561664 131.60744178 168.55714417 131.60241699 C162.92758239 131.59515308 157.29823097 131.60469609 151.66870117 131.6237793 C145.16958922 131.64555648 138.67097909 131.63848594 132.17187923 131.61647367 C126.58013962 131.59829624 120.98855067 131.59577239 115.39679104 131.60622835 C112.06208961 131.61244926 108.72781266 131.61175655 105.39309502 131.6000824 C101.67553653 131.58992293 97.9589418 131.60541116 94.24145508 131.62768555 C92.59314949 131.61554016 92.59314949 131.61554016 90.9115448 131.60314941 C83.17602279 131.68900597 79.87475317 133.01343688 74.25146484 138.33276367 Z M8.02490234 260.56713867 C6.37671176 262.24837035 4.72826673 263.92935262 3.07958984 265.61010742 C0.49667398 268.26159191 -2.08204296 270.91697911 -4.65576172 273.57739258 C-7.14737911 276.14713936 -9.65393044 278.70155046 -12.16259766 281.25463867 C-12.93246002 282.05971863 -13.70232239 282.86479858 -14.49551392 283.6942749 C-15.21661346 284.42543518 -15.93771301 285.15659546 -16.68066406 285.90991211 C-17.31098541 286.56038513 -17.94130676 287.21085815 -18.59072876 287.88104248 C-20.43603516 289.14526367 -20.43603516 289.14526367 -22.4871521 288.99981689 C-25.57007274 287.64800681 -27.86617951 285.29555105 -30.43603516 283.14526367 C-34.3269622 280.83173949 -37.77060043 280.86253232 -42.15087891 281.46948242 C-46.75007212 282.82958571 -50.14478772 286.0162169 -52.60400391 290.07104492 C-53.51685869 292.34675333 -53.76810866 294.07345356 -53.81103516 296.52026367 C-53.83939453 297.24987305 -53.86775391 297.97948242 -53.89697266 298.73120117 C-52.46793216 306.21549803 -45.13696744 311.77630991 -39.99853516 316.89526367 C-38.72913086 318.18883789 -38.72913086 318.18883789 -37.43408203 319.50854492 C-36.61101562 320.33225586 -35.78794922 321.1559668 -34.93994141 322.00463867 C-34.19558838 322.75197266 -33.45123535 323.49930664 -32.68432617 324.26928711 C-28.2258536 327.98944166 -24.15828684 328.64721557 -18.43603516 328.14526367 C-13.80466241 326.20234084 -10.66819744 323.75978849 -7.12084961 320.23413086 C-6.62736023 319.74750473 -6.13387085 319.2608786 -5.62542725 318.75950623 C-4.0090135 317.16127652 -2.40380852 315.55233001 -0.79931641 313.94213867 C0.32799013 312.81939784 1.45566649 311.69702821 2.58369446 310.57501221 C4.94130716 308.22631407 7.29318368 305.8720496 9.64135742 303.51391602 C12.64219182 300.50159235 15.65858693 297.5054167 18.67972088 294.5134697 C21.01086523 292.20072336 23.33257283 289.87868009 25.6516819 287.55387115 C26.75972522 286.44567507 27.87085322 285.34055391 28.98517418 284.23867035 C30.54559418 282.69322697 32.09259263 281.13543552 33.63696289 279.57397461 C34.51821335 278.69255798 35.39946381 277.81114136 36.30741882 276.90301514 C39.23126733 273.32974545 41.32522557 269.61512994 41.77880859 264.92260742 C41.05870031 260.14555105 39.85142069 256.85418822 36.56396484 253.14526367 C24.63253014 244.95353238 16.80147031 251.43335863 8.02490234 260.56713867 Z M74.18896484 287.83276367 C71.91131522 292.47566482 70.53690202 297.0640752 72.22802734 302.13745117 C74.84488113 307.09458071 78.26771372 310.37984663 83.56396484 312.14526367 C85.17449727 312.2410045 86.78868768 312.28017006 88.40205383 312.28570557 C89.3987912 312.29141571 90.39552856 312.29712585 91.42247009 312.30300903 C92.51499588 312.30412689 93.60752167 312.30524475 94.7331543 312.30639648 C95.88462952 312.31136139 97.03610474 312.31632629 98.22247314 312.32144165 C102.04073682 312.33607497 105.85895895 312.34286721 109.67724609 312.34838867 C111.65720745 312.35268619 113.6371688 312.35698423 115.61712998 312.36136317 C121.13487382 312.37317385 126.65260758 312.38071136 132.17036277 312.38415837 C139.30065005 312.3886375 146.43074547 312.40617966 153.56097442 312.43515897 C159.07616133 312.45679424 164.59129433 312.46686365 170.10652322 312.46819949 C173.3987562 312.46924628 176.69076793 312.47657752 179.98296547 312.4930191 C183.65765567 312.51006098 187.33187818 312.50820356 191.0065918 312.50170898 C192.09304489 312.51092377 193.17949799 312.52013855 194.2988739 312.52963257 C200.58057503 312.49482968 205.39673448 312.10184688 210.20849609 307.61010742 C214.0417063 302.59744792 215.20396548 299.48601072 214.56396484 293.14526367 C212.70539657 287.87932023 209.96082289 285.351306 205.56396484 282.14526367 C202.64802029 281.17328215 200.76838841 281.01307881 197.73260498 280.99809265 C196.73731277 280.99093735 195.74202057 280.98378204 194.71656799 280.97640991 C193.62561325 280.97372101 192.53465851 280.9710321 191.41064453 280.96826172 C189.68584114 280.95840492 189.68584114 280.95840492 187.92619324 280.948349 C184.11274147 280.92860359 180.29932911 280.91695082 176.48583984 280.90698242 C175.1844532 280.90290689 173.88306656 280.89883137 172.54224396 280.89463234 C166.3651354 280.87591871 160.1880466 280.86135395 154.01091552 280.85302037 C146.88907146 280.84325275 139.7675386 280.81694401 132.64580417 280.77651948 C127.13569847 280.74632025 121.62568179 280.73154787 116.11549497 280.72823936 C112.82706831 280.72589295 109.53904961 280.71500266 106.25069427 280.69177818 C102.57849814 280.66745414 98.90711516 280.66834004 95.23486328 280.67529297 C94.15200546 280.66248291 93.06914764 280.64967285 91.95347595 280.63647461 C84.22793436 280.68976913 79.48360667 281.84145845 74.18896484 287.83276367 Z " fill="#59AA9D" transform="translate(175.43603515625,41.854736328125)"/>
</svg>
